<svg width="13" height="15" fill="none" xmlns="http://www.w3.org/2000/svg"><g clip-path="url(#clip0_117_114)"><path fill-rule="evenodd" clip-rule="evenodd" d="M4.753 0c-.351 0-.673.2-.83.518l-.209.42H.93a.933.933 0 00-.93.937c0 .518.416.938.929.938H12.07c.514 0 .929-.42.929-.938a.933.933 0 00-.929-.937H9.286l-.21-.42A.927.927 0 008.247 0H4.754zm7.318 3.75H.902v9.375C.902 14.159 1.76 15 2.76 15h7.454c1.025 0 1.857-.84 1.857-1.875V3.75zM3.224 6.094v6.562c0 .258.235.469.464.469a.451.451 0 00.464-.469V6.094a.452.452 0 00-.464-.47.486.486 0 00-.464.47zm2.786 0v6.562c0 .258.235.469.464.469.281 0 .49-.211.49-.469V6.094a.474.474 0 00-.49-.47.486.486 0 00-.464.47zm2.811 0v6.562c0 .258.21.469.465.469s.464-.211.464-.469V6.094a.468.468 0 00-.464-.47.468.468 0 00-.465.47z" fill="#000"/></g><defs><clipPath id="clip0_117_114"><path fill="#fff" d="M0 0h13v15H0z"/></clipPath></defs></svg>